solid cylinder
  facet normal 0 0 -1
    outer loop
      vertex 0 0 0
      vertex 4.903926402016152 0.9754516100806412 0
      vertex 5.0 0.0 0
    endloop
  endfacet
  facet normal 0 0 1
    outer loop
      vertex 0 0 800
      vertex 5.0 0.0 800
      vertex 4.903926402016152 0.9754516100806412 800
    endloop
  endfacet
  facet normal 5.0 0.0 0
    outer loop
      vertex 5.0 0.0 0
      vertex 4.903926402016152 0.9754516100806412 0
      vertex 4.903926402016152 0.9754516100806412 800
    endloop
  endfacet
  facet normal 5.0 0.0 0
    outer loop
      vertex 5.0 0.0 0
      vertex 4.903926402016152 0.9754516100806412 800
      vertex 5.0 0.0 800
    endloop
  endfacet
  facet normal 0 0 -1
    outer loop
      vertex 0 0 0
      vertex 4.619397662556434 1.913417161825449 0
      vertex 4.903926402016152 0.9754516100806412 0
    endloop
  endfacet
  facet normal 0 0 1
    outer loop
      vertex 0 0 800
      vertex 4.903926402016152 0.9754516100806412 800
      vertex 4.619397662556434 1.913417161825449 800
    endloop
  endfacet
  facet normal 4.903926402016152 0.9754516100806412 0
    outer loop
      vertex 4.903926402016152 0.9754516100806412 0
      vertex 4.619397662556434 1.913417161825449 0
      vertex 4.619397662556434 1.913417161825449 800
    endloop
  endfacet
  facet normal 4.903926402016152 0.9754516100806412 0
    outer loop
      vertex 4.903926402016152 0.9754516100806412 0
      vertex 4.619397662556434 1.913417161825449 800
      vertex 4.903926402016152 0.9754516100806412 800
    endloop
  endfacet
  facet normal 0 0 -1
    outer loop
      vertex 0 0 0
      vertex 4.157348061512726 2.777851165098011 0
      vertex 4.619397662556434 1.913417161825449 0
    endloop
  endfacet
  facet normal 0 0 1
    outer loop
      vertex 0 0 800
      vertex 4.619397662556434 1.913417161825449 800
      vertex 4.157348061512726 2.777851165098011 800
    endloop
  endfacet
  facet normal 4.619397662556434 1.913417161825449 0
    outer loop
      vertex 4.619397662556434 1.913417161825449 0
      vertex 4.157348061512726 2.777851165098011 0
      vertex 4.157348061512726 2.777851165098011 800
    endloop
  endfacet
  facet normal 4.619397662556434 1.913417161825449 0
    outer loop
      vertex 4.619397662556434 1.913417161825449 0
      vertex 4.157348061512726 2.777851165098011 800
      vertex 4.619397662556434 1.913417161825449 800
    endloop
  endfacet
  facet normal 0 0 -1
    outer loop
      vertex 0 0 0
      vertex 3.5355339059327378 3.5355339059327373 0
      vertex 4.157348061512726 2.777851165098011 0
    endloop
  endfacet
  facet normal 0 0 1
    outer loop
      vertex 0 0 800
      vertex 4.157348061512726 2.777851165098011 800
      vertex 3.5355339059327378 3.5355339059327373 800
    endloop
  endfacet
  facet normal 4.157348061512726 2.777851165098011 0
    outer loop
      vertex 4.157348061512726 2.777851165098011 0
      vertex 3.5355339059327378 3.5355339059327373 0
      vertex 3.5355339059327378 3.5355339059327373 800
    endloop
  endfacet
  facet normal 4.157348061512726 2.777851165098011 0
    outer loop
      vertex 4.157348061512726 2.777851165098011 0
      vertex 3.5355339059327378 3.5355339059327373 800
      vertex 4.157348061512726 2.777851165098011 800
    endloop
  endfacet
  facet normal 0 0 -1
    outer loop
      vertex 0 0 0
      vertex 2.7778511650980113 4.157348061512726 0
      vertex 3.5355339059327378 3.5355339059327373 0
    endloop
  endfacet
  facet normal 0 0 1
    outer loop
      vertex 0 0 800
      vertex 3.5355339059327378 3.5355339059327373 800
      vertex 2.7778511650980113 4.157348061512726 800
    endloop
  endfacet
  facet normal 3.5355339059327378 3.5355339059327373 0
    outer loop
      vertex 3.5355339059327378 3.5355339059327373 0
      vertex 2.7778511650980113 4.157348061512726 0
      vertex 2.7778511650980113 4.157348061512726 800
    endloop
  endfacet
  facet normal 3.5355339059327378 3.5355339059327373 0
    outer loop
      vertex 3.5355339059327378 3.5355339059327373 0
      vertex 2.7778511650980113 4.157348061512726 800
      vertex 3.5355339059327378 3.5355339059327373 800
    endloop
  endfacet
  facet normal 0 0 -1
    outer loop
      vertex 0 0 0
      vertex 1.9134171618254492 4.619397662556434 0
      vertex 2.7778511650980113 4.157348061512726 0
    endloop
  endfacet
  facet normal 0 0 1
    outer loop
      vertex 0 0 800
      vertex 2.7778511650980113 4.157348061512726 800
      vertex 1.9134171618254492 4.619397662556434 800
    endloop
  endfacet
  facet normal 2.7778511650980113 4.157348061512726 0
    outer loop
      vertex 2.7778511650980113 4.157348061512726 0
      vertex 1.9134171618254492 4.619397662556434 0
      vertex 1.9134171618254492 4.619397662556434 800
    endloop
  endfacet
  facet normal 2.7778511650980113 4.157348061512726 0
    outer loop
      vertex 2.7778511650980113 4.157348061512726 0
      vertex 1.9134171618254492 4.619397662556434 800
      vertex 2.7778511650980113 4.157348061512726 800
    endloop
  endfacet
  facet normal 0 0 -1
    outer loop
      vertex 0 0 0
      vertex 0.9754516100806416 4.903926402016152 0
      vertex 1.9134171618254492 4.619397662556434 0
    endloop
  endfacet
  facet normal 0 0 1
    outer loop
      vertex 0 0 800
      vertex 1.9134171618254492 4.619397662556434 800
      vertex 0.9754516100806416 4.903926402016152 800
    endloop
  endfacet
  facet normal 1.9134171618254492 4.619397662556434 0
    outer loop
      vertex 1.9134171618254492 4.619397662556434 0
      vertex 0.9754516100806416 4.903926402016152 0
      vertex 0.9754516100806416 4.903926402016152 800
    endloop
  endfacet
  facet normal 1.9134171618254492 4.619397662556434 0
    outer loop
      vertex 1.9134171618254492 4.619397662556434 0
      vertex 0.9754516100806416 4.903926402016152 800
      vertex 1.9134171618254492 4.619397662556434 800
    endloop
  endfacet
  facet normal 0 0 -1
    outer loop
      vertex 0 0 0
      vertex 3.061616997868383e-16 5.0 0
      vertex 0.9754516100806416 4.903926402016152 0
    endloop
  endfacet
  facet normal 0 0 1
    outer loop
      vertex 0 0 800
      vertex 0.9754516100806416 4.903926402016152 800
      vertex 3.061616997868383e-16 5.0 800
    endloop
  endfacet
  facet normal 0.9754516100806416 4.903926402016152 0
    outer loop
      vertex 0.9754516100806416 4.903926402016152 0
      vertex 3.061616997868383e-16 5.0 0
      vertex 3.061616997868383e-16 5.0 800
    endloop
  endfacet
  facet normal 0.9754516100806416 4.903926402016152 0
    outer loop
      vertex 0.9754516100806416 4.903926402016152 0
      vertex 3.061616997868383e-16 5.0 800
      vertex 0.9754516100806416 4.903926402016152 800
    endloop
  endfacet
  facet normal 0 0 -1
    outer loop
      vertex 0 0 0
      vertex -0.975451610080641 4.903926402016152 0
      vertex 3.061616997868383e-16 5.0 0
    endloop
  endfacet
  facet normal 0 0 1
    outer loop
      vertex 0 0 800
      vertex 3.061616997868383e-16 5.0 800
      vertex -0.975451610080641 4.903926402016152 800
    endloop
  endfacet
  facet normal 3.061616997868383e-16 5.0 0
    outer loop
      vertex 3.061616997868383e-16 5.0 0
      vertex -0.975451610080641 4.903926402016152 0
      vertex -0.975451610080641 4.903926402016152 800
    endloop
  endfacet
  facet normal 3.061616997868383e-16 5.0 0
    outer loop
      vertex 3.061616997868383e-16 5.0 0
      vertex -0.975451610080641 4.903926402016152 800
      vertex 3.061616997868383e-16 5.0 800
    endloop
  endfacet
  facet normal 0 0 -1
    outer loop
      vertex 0 0 0
      vertex -1.9134171618254485 4.619397662556434 0
      vertex -0.975451610080641 4.903926402016152 0
    endloop
  endfacet
  facet normal 0 0 1
    outer loop
      vertex 0 0 800
      vertex -0.975451610080641 4.903926402016152 800
      vertex -1.9134171618254485 4.619397662556434 800
    endloop
  endfacet
  facet normal -0.975451610080641 4.903926402016152 0
    outer loop
      vertex -0.975451610080641 4.903926402016152 0
      vertex -1.9134171618254485 4.619397662556434 0
      vertex -1.9134171618254485 4.619397662556434 800
    endloop
  endfacet
  facet normal -0.975451610080641 4.903926402016152 0
    outer loop
      vertex -0.975451610080641 4.903926402016152 0
      vertex -1.9134171618254485 4.619397662556434 800
      vertex -0.975451610080641 4.903926402016152 800
    endloop
  endfacet
  facet normal 0 0 -1
    outer loop
      vertex 0 0 0
      vertex -2.77785116509801 4.157348061512727 0
      vertex -1.9134171618254485 4.619397662556434 0
    endloop
  endfacet
  facet normal 0 0 1
    outer loop
      vertex 0 0 800
      vertex -1.9134171618254485 4.619397662556434 800
      vertex -2.77785116509801 4.157348061512727 800
    endloop
  endfacet
  facet normal -1.9134171618254485 4.619397662556434 0
    outer loop
      vertex -1.9134171618254485 4.619397662556434 0
      vertex -2.77785116509801 4.157348061512727 0
      vertex -2.77785116509801 4.157348061512727 800
    endloop
  endfacet
  facet normal -1.9134171618254485 4.619397662556434 0
    outer loop
      vertex -1.9134171618254485 4.619397662556434 0
      vertex -2.77785116509801 4.157348061512727 800
      vertex -1.9134171618254485 4.619397662556434 800
    endloop
  endfacet
  facet normal 0 0 -1
    outer loop
      vertex 0 0 0
      vertex -3.5355339059327373 3.5355339059327378 0
      vertex -2.77785116509801 4.157348061512727 0
    endloop
  endfacet
  facet normal 0 0 1
    outer loop
      vertex 0 0 800
      vertex -2.77785116509801 4.157348061512727 800
      vertex -3.5355339059327373 3.5355339059327378 800
    endloop
  endfacet
  facet normal -2.77785116509801 4.157348061512727 0
    outer loop
      vertex -2.77785116509801 4.157348061512727 0
      vertex -3.5355339059327373 3.5355339059327378 0
      vertex -3.5355339059327373 3.5355339059327378 800
    endloop
  endfacet
  facet normal -2.77785116509801 4.157348061512727 0
    outer loop
      vertex -2.77785116509801 4.157348061512727 0
      vertex -3.5355339059327373 3.5355339059327378 800
      vertex -2.77785116509801 4.157348061512727 800
    endloop
  endfacet
  facet normal 0 0 -1
    outer loop
      vertex 0 0 0
      vertex -4.157348061512726 2.777851165098011 0
      vertex -3.5355339059327373 3.5355339059327378 0
    endloop
  endfacet
  facet normal 0 0 1
    outer loop
      vertex 0 0 800
      vertex -3.5355339059327373 3.5355339059327378 800
      vertex -4.157348061512726 2.777851165098011 800
    endloop
  endfacet
  facet normal -3.5355339059327373 3.5355339059327378 0
    outer loop
      vertex -3.5355339059327373 3.5355339059327378 0
      vertex -4.157348061512726 2.777851165098011 0
      vertex -4.157348061512726 2.777851165098011 800
    endloop
  endfacet
  facet normal -3.5355339059327373 3.5355339059327378 0
    outer loop
      vertex -3.5355339059327373 3.5355339059327378 0
      vertex -4.157348061512726 2.777851165098011 800
      vertex -3.5355339059327373 3.5355339059327378 800
    endloop
  endfacet
  facet normal 0 0 -1
    outer loop
      vertex 0 0 0
      vertex -4.619397662556434 1.9134171618254494 0
      vertex -4.157348061512726 2.777851165098011 0
    endloop
  endfacet
  facet normal 0 0 1
    outer loop
      vertex 0 0 800
      vertex -4.157348061512726 2.777851165098011 800
      vertex -4.619397662556434 1.9134171618254494 800
    endloop
  endfacet
  facet normal -4.157348061512726 2.777851165098011 0
    outer loop
      vertex -4.157348061512726 2.777851165098011 0
      vertex -4.619397662556434 1.9134171618254494 0
      vertex -4.619397662556434 1.9134171618254494 800
    endloop
  endfacet
  facet normal -4.157348061512726 2.777851165098011 0
    outer loop
      vertex -4.157348061512726 2.777851165098011 0
      vertex -4.619397662556434 1.9134171618254494 800
      vertex -4.157348061512726 2.777851165098011 800
    endloop
  endfacet
  facet normal 0 0 -1
    outer loop
      vertex 0 0 0
      vertex -4.903926402016152 0.9754516100806431 0
      vertex -4.619397662556434 1.9134171618254494 0
    endloop
  endfacet
  facet normal 0 0 1
    outer loop
      vertex 0 0 800
      vertex -4.619397662556434 1.9134171618254494 800
      vertex -4.903926402016152 0.9754516100806431 800
    endloop
  endfacet
  facet normal -4.619397662556434 1.9134171618254494 0
    outer loop
      vertex -4.619397662556434 1.9134171618254494 0
      vertex -4.903926402016152 0.9754516100806431 0
      vertex -4.903926402016152 0.9754516100806431 800
    endloop
  endfacet
  facet normal -4.619397662556434 1.9134171618254494 0
    outer loop
      vertex -4.619397662556434 1.9134171618254494 0
      vertex -4.903926402016152 0.9754516100806431 800
      vertex -4.619397662556434 1.9134171618254494 800
    endloop
  endfacet
  facet normal 0 0 -1
    outer loop
      vertex 0 0 0
      vertex -5.0 6.123233995736766e-16 0
      vertex -4.903926402016152 0.9754516100806431 0
    endloop
  endfacet
  facet normal 0 0 1
    outer loop
      vertex 0 0 800
      vertex -4.903926402016152 0.9754516100806431 800
      vertex -5.0 6.123233995736766e-16 800
    endloop
  endfacet
  facet normal -4.903926402016152 0.9754516100806431 0
    outer loop
      vertex -4.903926402016152 0.9754516100806431 0
      vertex -5.0 6.123233995736766e-16 0
      vertex -5.0 6.123233995736766e-16 800
    endloop
  endfacet
  facet normal -4.903926402016152 0.9754516100806431 0
    outer loop
      vertex -4.903926402016152 0.9754516100806431 0
      vertex -5.0 6.123233995736766e-16 800
      vertex -4.903926402016152 0.9754516100806431 800
    endloop
  endfacet
  facet normal 0 0 -1
    outer loop
      vertex 0 0 0
      vertex -4.903926402016152 -0.9754516100806419 0
      vertex -5.0 6.123233995736766e-16 0
    endloop
  endfacet
  facet normal 0 0 1
    outer loop
      vertex 0 0 800
      vertex -5.0 6.123233995736766e-16 800
      vertex -4.903926402016152 -0.9754516100806419 800
    endloop
  endfacet
  facet normal -5.0 6.123233995736766e-16 0
    outer loop
      vertex -5.0 6.123233995736766e-16 0
      vertex -4.903926402016152 -0.9754516100806419 0
      vertex -4.903926402016152 -0.9754516100806419 800
    endloop
  endfacet
  facet normal -5.0 6.123233995736766e-16 0
    outer loop
      vertex -5.0 6.123233995736766e-16 0
      vertex -4.903926402016152 -0.9754516100806419 800
      vertex -5.0 6.123233995736766e-16 800
    endloop
  endfacet
  facet normal 0 0 -1
    outer loop
      vertex 0 0 0
      vertex -4.619397662556434 -1.9134171618254483 0
      vertex -4.903926402016152 -0.9754516100806419 0
    endloop
  endfacet
  facet normal 0 0 1
    outer loop
      vertex 0 0 800
      vertex -4.903926402016152 -0.9754516100806419 800
      vertex -4.619397662556434 -1.9134171618254483 800
    endloop
  endfacet
  facet normal -4.903926402016152 -0.9754516100806419 0
    outer loop
      vertex -4.903926402016152 -0.9754516100806419 0
      vertex -4.619397662556434 -1.9134171618254483 0
      vertex -4.619397662556434 -1.9134171618254483 800
    endloop
  endfacet
  facet normal -4.903926402016152 -0.9754516100806419 0
    outer loop
      vertex -4.903926402016152 -0.9754516100806419 0
      vertex -4.619397662556434 -1.9134171618254483 800
      vertex -4.903926402016152 -0.9754516100806419 800
    endloop
  endfacet
  facet normal 0 0 -1
    outer loop
      vertex 0 0 0
      vertex -4.157348061512727 -2.77785116509801 0
      vertex -4.619397662556434 -1.9134171618254483 0
    endloop
  endfacet
  facet normal 0 0 1
    outer loop
      vertex 0 0 800
      vertex -4.619397662556434 -1.9134171618254483 800
      vertex -4.157348061512727 -2.77785116509801 800
    endloop
  endfacet
  facet normal -4.619397662556434 -1.9134171618254483 0
    outer loop
      vertex -4.619397662556434 -1.9134171618254483 0
      vertex -4.157348061512727 -2.77785116509801 0
      vertex -4.157348061512727 -2.77785116509801 800
    endloop
  endfacet
  facet normal -4.619397662556434 -1.9134171618254483 0
    outer loop
      vertex -4.619397662556434 -1.9134171618254483 0
      vertex -4.157348061512727 -2.77785116509801 800
      vertex -4.619397662556434 -1.9134171618254483 800
    endloop
  endfacet
  facet normal 0 0 -1
    outer loop
      vertex 0 0 0
      vertex -3.5355339059327386 -3.5355339059327373 0
      vertex -4.157348061512727 -2.77785116509801 0
    endloop
  endfacet
  facet normal 0 0 1
    outer loop
      vertex 0 0 800
      vertex -4.157348061512727 -2.77785116509801 800
      vertex -3.5355339059327386 -3.5355339059327373 800
    endloop
  endfacet
  facet normal -4.157348061512727 -2.77785116509801 0
    outer loop
      vertex -4.157348061512727 -2.77785116509801 0
      vertex -3.5355339059327386 -3.5355339059327373 0
      vertex -3.5355339059327386 -3.5355339059327373 800
    endloop
  endfacet
  facet normal -4.157348061512727 -2.77785116509801 0
    outer loop
      vertex -4.157348061512727 -2.77785116509801 0
      vertex -3.5355339059327386 -3.5355339059327373 800
      vertex -4.157348061512727 -2.77785116509801 800
    endloop
  endfacet
  facet normal 0 0 -1
    outer loop
      vertex 0 0 0
      vertex -2.777851165098011 -4.157348061512726 0
      vertex -3.5355339059327386 -3.5355339059327373 0
    endloop
  endfacet
  facet normal 0 0 1
    outer loop
      vertex 0 0 800
      vertex -3.5355339059327386 -3.5355339059327373 800
      vertex -2.777851165098011 -4.157348061512726 800
    endloop
  endfacet
  facet normal -3.5355339059327386 -3.5355339059327373 0
    outer loop
      vertex -3.5355339059327386 -3.5355339059327373 0
      vertex -2.777851165098011 -4.157348061512726 0
      vertex -2.777851165098011 -4.157348061512726 800
    endloop
  endfacet
  facet normal -3.5355339059327386 -3.5355339059327373 0
    outer loop
      vertex -3.5355339059327386 -3.5355339059327373 0
      vertex -2.777851165098011 -4.157348061512726 800
      vertex -3.5355339059327386 -3.5355339059327373 800
    endloop
  endfacet
  facet normal 0 0 -1
    outer loop
      vertex 0 0 0
      vertex -1.9134171618254516 -4.619397662556432 0
      vertex -2.777851165098011 -4.157348061512726 0
    endloop
  endfacet
  facet normal 0 0 1
    outer loop
      vertex 0 0 800
      vertex -2.777851165098011 -4.157348061512726 800
      vertex -1.9134171618254516 -4.619397662556432 800
    endloop
  endfacet
  facet normal -2.777851165098011 -4.157348061512726 0
    outer loop
      vertex -2.777851165098011 -4.157348061512726 0
      vertex -1.9134171618254516 -4.619397662556432 0
      vertex -1.9134171618254516 -4.619397662556432 800
    endloop
  endfacet
  facet normal -2.777851165098011 -4.157348061512726 0
    outer loop
      vertex -2.777851165098011 -4.157348061512726 0
      vertex -1.9134171618254516 -4.619397662556432 800
      vertex -2.777851165098011 -4.157348061512726 800
    endloop
  endfacet
  facet normal 0 0 -1
    outer loop
      vertex 0 0 0
      vertex -0.9754516100806433 -4.903926402016151 0
      vertex -1.9134171618254516 -4.619397662556432 0
    endloop
  endfacet
  facet normal 0 0 1
    outer loop
      vertex 0 0 800
      vertex -1.9134171618254516 -4.619397662556432 800
      vertex -0.9754516100806433 -4.903926402016151 800
    endloop
  endfacet
  facet normal -1.9134171618254516 -4.619397662556432 0
    outer loop
      vertex -1.9134171618254516 -4.619397662556432 0
      vertex -0.9754516100806433 -4.903926402016151 0
      vertex -0.9754516100806433 -4.903926402016151 800
    endloop
  endfacet
  facet normal -1.9134171618254516 -4.619397662556432 0
    outer loop
      vertex -1.9134171618254516 -4.619397662556432 0
      vertex -0.9754516100806433 -4.903926402016151 800
      vertex -1.9134171618254516 -4.619397662556432 800
    endloop
  endfacet
  facet normal 0 0 -1
    outer loop
      vertex 0 0 0
      vertex -9.184850993605148e-16 -5.0 0
      vertex -0.9754516100806433 -4.903926402016151 0
    endloop
  endfacet
  facet normal 0 0 1
    outer loop
      vertex 0 0 800
      vertex -0.9754516100806433 -4.903926402016151 800
      vertex -9.184850993605148e-16 -5.0 800
    endloop
  endfacet
  facet normal -0.9754516100806433 -4.903926402016151 0
    outer loop
      vertex -0.9754516100806433 -4.903926402016151 0
      vertex -9.184850993605148e-16 -5.0 0
      vertex -9.184850993605148e-16 -5.0 800
    endloop
  endfacet
  facet normal -0.9754516100806433 -4.903926402016151 0
    outer loop
      vertex -0.9754516100806433 -4.903926402016151 0
      vertex -9.184850993605148e-16 -5.0 800
      vertex -0.9754516100806433 -4.903926402016151 800
    endloop
  endfacet
  facet normal 0 0 -1
    outer loop
      vertex 0 0 0
      vertex 0.9754516100806415 -4.903926402016152 0
      vertex -9.184850993605148e-16 -5.0 0
    endloop
  endfacet
  facet normal 0 0 1
    outer loop
      vertex 0 0 800
      vertex -9.184850993605148e-16 -5.0 800
      vertex 0.9754516100806415 -4.903926402016152 800
    endloop
  endfacet
  facet normal -9.184850993605148e-16 -5.0 0
    outer loop
      vertex -9.184850993605148e-16 -5.0 0
      vertex 0.9754516100806415 -4.903926402016152 0
      vertex 0.9754516100806415 -4.903926402016152 800
    endloop
  endfacet
  facet normal -9.184850993605148e-16 -5.0 0
    outer loop
      vertex -9.184850993605148e-16 -5.0 0
      vertex 0.9754516100806415 -4.903926402016152 800
      vertex -9.184850993605148e-16 -5.0 800
    endloop
  endfacet
  facet normal 0 0 -1
    outer loop
      vertex 0 0 0
      vertex 1.91341716182545 -4.619397662556433 0
      vertex 0.9754516100806415 -4.903926402016152 0
    endloop
  endfacet
  facet normal 0 0 1
    outer loop
      vertex 0 0 800
      vertex 0.9754516100806415 -4.903926402016152 800
      vertex 1.91341716182545 -4.619397662556433 800
    endloop
  endfacet
  facet normal 0.9754516100806415 -4.903926402016152 0
    outer loop
      vertex 0.9754516100806415 -4.903926402016152 0
      vertex 1.91341716182545 -4.619397662556433 0
      vertex 1.91341716182545 -4.619397662556433 800
    endloop
  endfacet
  facet normal 0.9754516100806415 -4.903926402016152 0
    outer loop
      vertex 0.9754516100806415 -4.903926402016152 0
      vertex 1.91341716182545 -4.619397662556433 800
      vertex 0.9754516100806415 -4.903926402016152 800
    endloop
  endfacet
  facet normal 0 0 -1
    outer loop
      vertex 0 0 0
      vertex 2.777851165098009 -4.157348061512727 0
      vertex 1.91341716182545 -4.619397662556433 0
    endloop
  endfacet
  facet normal 0 0 1
    outer loop
      vertex 0 0 800
      vertex 1.91341716182545 -4.619397662556433 800
      vertex 2.777851165098009 -4.157348061512727 800
    endloop
  endfacet
  facet normal 1.91341716182545 -4.619397662556433 0
    outer loop
      vertex 1.91341716182545 -4.619397662556433 0
      vertex 2.777851165098009 -4.157348061512727 0
      vertex 2.777851165098009 -4.157348061512727 800
    endloop
  endfacet
  facet normal 1.91341716182545 -4.619397662556433 0
    outer loop
      vertex 1.91341716182545 -4.619397662556433 0
      vertex 2.777851165098009 -4.157348061512727 800
      vertex 1.91341716182545 -4.619397662556433 800
    endloop
  endfacet
  facet normal 0 0 -1
    outer loop
      vertex 0 0 0
      vertex 3.535533905932737 -3.5355339059327386 0
      vertex 2.777851165098009 -4.157348061512727 0
    endloop
  endfacet
  facet normal 0 0 1
    outer loop
      vertex 0 0 800
      vertex 2.777851165098009 -4.157348061512727 800
      vertex 3.535533905932737 -3.5355339059327386 800
    endloop
  endfacet
  facet normal 2.777851165098009 -4.157348061512727 0
    outer loop
      vertex 2.777851165098009 -4.157348061512727 0
      vertex 3.535533905932737 -3.5355339059327386 0
      vertex 3.535533905932737 -3.5355339059327386 800
    endloop
  endfacet
  facet normal 2.777851165098009 -4.157348061512727 0
    outer loop
      vertex 2.777851165098009 -4.157348061512727 0
      vertex 3.535533905932737 -3.5355339059327386 800
      vertex 2.777851165098009 -4.157348061512727 800
    endloop
  endfacet
  facet normal 0 0 -1
    outer loop
      vertex 0 0 0
      vertex 4.157348061512726 -2.777851165098011 0
      vertex 3.535533905932737 -3.5355339059327386 0
    endloop
  endfacet
  facet normal 0 0 1
    outer loop
      vertex 0 0 800
      vertex 3.535533905932737 -3.5355339059327386 800
      vertex 4.157348061512726 -2.777851165098011 800
    endloop
  endfacet
  facet normal 3.535533905932737 -3.5355339059327386 0
    outer loop
      vertex 3.535533905932737 -3.5355339059327386 0
      vertex 4.157348061512726 -2.777851165098011 0
      vertex 4.157348061512726 -2.777851165098011 800
    endloop
  endfacet
  facet normal 3.535533905932737 -3.5355339059327386 0
    outer loop
      vertex 3.535533905932737 -3.5355339059327386 0
      vertex 4.157348061512726 -2.777851165098011 800
      vertex 3.535533905932737 -3.5355339059327386 800
    endloop
  endfacet
  facet normal 0 0 -1
    outer loop
      vertex 0 0 0
      vertex 4.619397662556432 -1.913417161825452 0
      vertex 4.157348061512726 -2.777851165098011 0
    endloop
  endfacet
  facet normal 0 0 1
    outer loop
      vertex 0 0 800
      vertex 4.157348061512726 -2.777851165098011 800
      vertex 4.619397662556432 -1.913417161825452 800
    endloop
  endfacet
  facet normal 4.157348061512726 -2.777851165098011 0
    outer loop
      vertex 4.157348061512726 -2.777851165098011 0
      vertex 4.619397662556432 -1.913417161825452 0
      vertex 4.619397662556432 -1.913417161825452 800
    endloop
  endfacet
  facet normal 4.157348061512726 -2.777851165098011 0
    outer loop
      vertex 4.157348061512726 -2.777851165098011 0
      vertex 4.619397662556432 -1.913417161825452 800
      vertex 4.157348061512726 -2.777851165098011 800
    endloop
  endfacet
  facet normal 0 0 -1
    outer loop
      vertex 0 0 0
      vertex 4.903926402016151 -0.9754516100806436 0
      vertex 4.619397662556432 -1.913417161825452 0
    endloop
  endfacet
  facet normal 0 0 1
    outer loop
      vertex 0 0 800
      vertex 4.619397662556432 -1.913417161825452 800
      vertex 4.903926402016151 -0.9754516100806436 800
    endloop
  endfacet
  facet normal 4.619397662556432 -1.913417161825452 0
    outer loop
      vertex 4.619397662556432 -1.913417161825452 0
      vertex 4.903926402016151 -0.9754516100806436 0
      vertex 4.903926402016151 -0.9754516100806436 800
    endloop
  endfacet
  facet normal 4.619397662556432 -1.913417161825452 0
    outer loop
      vertex 4.619397662556432 -1.913417161825452 0
      vertex 4.903926402016151 -0.9754516100806436 800
      vertex 4.619397662556432 -1.913417161825452 800
    endloop
  endfacet
  facet normal 0 0 -1
    outer loop
      vertex 0 0 0
      vertex 5.0 -1.2246467991473533e-15 0
      vertex 4.903926402016151 -0.9754516100806436 0
    endloop
  endfacet
  facet normal 0 0 1
    outer loop
      vertex 0 0 800
      vertex 4.903926402016151 -0.9754516100806436 800
      vertex 5.0 -1.2246467991473533e-15 800
    endloop
  endfacet
  facet normal 4.903926402016151 -0.9754516100806436 0
    outer loop
      vertex 4.903926402016151 -0.9754516100806436 0
      vertex 5.0 -1.2246467991473533e-15 0
      vertex 5.0 -1.2246467991473533e-15 800
    endloop
  endfacet
  facet normal 4.903926402016151 -0.9754516100806436 0
    outer loop
      vertex 4.903926402016151 -0.9754516100806436 0
      vertex 5.0 -1.2246467991473533e-15 800
      vertex 4.903926402016151 -0.9754516100806436 800
    endloop
  endfacet
endsolid cylinder
